# xmcd
#
# Track frame offsets:
#	150
#	27445
#	35245
#	57845
#	91420
#	115305
#	144670
#	170860
#
# Disc length: 2465 seconds
#
# Revision: 1
# Processed by: cddbd v1.5.1PL2 Copyright (c) Steve Scherf et al.
# Submitted via: EasyCDDAExtractor 8.0.2.1
#
DISCID=75099f08
DTITLE=Dio - 9:30 Club Washington DC 10-12-00 Disc 2
DYEAR=2000
DGENRE=Hard Rock
TTITLE0=Otherworld
TTITLE1=Magica Reprise
TTITLE2=Holy Diver
TTITLE3=Heaven and Hell
TTITLE4=Rainbow In The Dark
TTITLE5=The Last In Lin
TTITLE6=Man On The Silver Mountain
TTITLE7=Long Live Rock and Roll
EXTD=
EXTT0=
EXTT1=
EXTT2=
EXTT3=
EXTT4=
EXTT5=
EXTT6=
EXTT7=
PLAYORDER=
